<svg xmlns="http://www.w3.org/2000/svg" viewBox="-9661 5084.541 22.75 22.75"><defs><style>.a{fill:#cf102d;}</style></defs><path class="a" d="M21.125-21.125a1.562,1.562,0,0,1,1.143.482A1.562,1.562,0,0,1,22.75-19.5V0a1.562,1.562,0,0,1-.482,1.143,1.562,1.562,0,0,1-1.143.482H1.625A1.562,1.562,0,0,1,.482,1.143,1.562,1.562,0,0,1,0,0V-19.5a1.562,1.562,0,0,1,.482-1.143,1.562,1.562,0,0,1,1.143-.482ZM6.855-1.625h.051V-12.492H3.5V-1.625ZM5.18-13.965a1.906,1.906,0,0,0,1.4-.584A1.877,1.877,0,0,0,7.16-15.92a1.877,1.877,0,0,0-.584-1.371,1.906,1.906,0,0,0-1.4-.584,1.823,1.823,0,0,0-1.371.584A1.919,1.919,0,0,0,3.25-15.92a1.919,1.919,0,0,0,.559,1.371A1.823,1.823,0,0,0,5.18-13.965ZM19.5-1.625V-7.566a7.382,7.382,0,0,0-.711-3.707,3.645,3.645,0,0,0-3.3-1.473,3.912,3.912,0,0,0-2.082.559,2.841,2.841,0,0,0-1.117,1.168h-.051v-1.473H8.988V-1.625H12.34V-7.008a4.167,4.167,0,0,1,.355-1.93A1.791,1.791,0,0,1,14.371-9.8a1.455,1.455,0,0,1,1.523.965,5.38,5.38,0,0,1,.254,1.93v5.281Z" transform="translate(-9661 5105.666)"/></svg>