<svg xmlns="http://www.w3.org/2000/svg" viewBox="-9616.316 5089.719 21.633 13.813"><defs><style>.a{fill:#cf102d;}</style></defs><path class="a" d="M22.953,5.719H2.184V19.531H23.816V5.719Zm-.863.863L13.711,14.91a.982.982,0,0,1-1.422,0L3.91,6.582Zm-19.043.3,5.637,5.637L3.047,18.16Zm.66,11.781,5.586-5.535L11.68,15.52a1.394,1.394,0,0,0,.609.432,2.054,2.054,0,0,0,1.422,0,1.394,1.394,0,0,0,.609-.432l2.387-2.387,5.586,5.535Zm19.246-.508-5.637-5.637,5.637-5.637Z" transform="translate(-9618.5 5084)"/></svg>