<svg xmlns="http://www.w3.org/2000/svg" viewBox="-9616.773 5085.809 22.547 21.633"><defs><style>.a{fill:#cf102d;}</style></defs><path class="a" d="M6.094,9.578a.893.893,0,0,0-.66.254.858.858,0,0,0,0,1.219.893.893,0,0,0,.66.254.863.863,0,0,0,0-1.727Zm2.59,0a.867.867,0,1,0,.609.254A.831.831,0,0,0,8.684,9.578ZM23.816,6.125H19.043V1.809H6.957V6.125H2.184a.435.435,0,0,0-.457.457V19.531a.435.435,0,0,0,.457.457H6.957v3.453H19.043V19.988h4.773a.435.435,0,0,0,.457-.457V6.582a.435.435,0,0,0-.457-.457Zm-16-3.453H18.18V6.125H7.82ZM18.18,22.578H7.82v-7.77H18.18Zm5.23-3.453H19.043v-5.18H6.957v5.18H2.59V6.988H23.41Z" transform="translate(-9618.5 5084)"/></svg>